<?xml version="1.0" encoding="utf-8"?>
<!-- Generator: Adobe Illustrator 27.4.0, SVG Export Plug-In . SVG Version: 6.00 Build 0)  -->
<svg version="1.1" id="Layer_2_00000096739501025053280140000010945451183569988537_"
	 xmlns="http://www.w3.org/2000/svg" xmlns:xlink="http://www.w3.org/1999/xlink" x="0px" y="0px" viewBox="0 0 230.4 107.9"
	 style="enable-background:new 0 0 230.4 107.9;" xml:space="preserve">
<style type="text/css">
	.st0{fill:#FFFFFF;}
	.st1{fill:#047DBB;}
	.st2{fill:none;}
</style>
<g id="Layer_2-2_00000178892180386448465990000013849155338957072049_">
	<g id="full_color">
		<g id="full_color-2">
			<path class="st0" d="M108.5,88c0,1.2-0.3,2.3-0.9,3c-0.6,0.8-1.3,1.1-2.3,1.1c-1,0-1.8-0.4-2.4-1.1l-0.1,0.9h-1.3V80.4h1.4v4.3
				c0.6-0.7,1.3-1.1,2.3-1.1s1.8,0.4,2.3,1.1s0.8,1.8,0.8,3.1L108.5,88L108.5,88L108.5,88z M107.1,87.8c0-1-0.2-1.7-0.6-2.2
				s-0.9-0.8-1.6-0.8c-0.9,0-1.6,0.4-2,1.3v3.6c0.4,0.9,1.1,1.3,2,1.3c0.7,0,1.2-0.3,1.6-0.8C106.9,89.7,107.1,88.9,107.1,87.8z"/>
			<path class="st0" d="M113.1,90l1.9-6.2h1.5l-3.3,9.5c-0.5,1.4-1.3,2.1-2.4,2.1l-0.3,0l-0.5-0.1v-1.1l0.4,0c0.5,0,0.8-0.1,1.1-0.3
				c0.3-0.2,0.5-0.5,0.7-1.1l0.3-0.8l-2.9-8.1h1.5L113.1,90L113.1,90L113.1,90z"/>
			<g id="Crunchtime_logo:_primary">
				<path class="st0" d="M136.2,83v2.8H135c-1.1,0-1.5,0.5-1.5,1.6v4.5h-3.1v-8.9h2l0.5,1c0.6-0.7,1.4-1,2.4-1L136.2,83L136.2,83
					L136.2,83L136.2,83z"/>
				<path class="st0" d="M137.8,88.1V83h3.1V88c0,0.9,0.5,1.5,1.3,1.5s1.3-0.6,1.3-1.5V83h3.1v5.1c0,2.5-1.8,4.1-4.4,4.1
					S137.8,90.6,137.8,88.1"/>
				<path class="st0" d="M157.2,86.5v5.4h-3.1v-5c0-1-0.4-1.6-1.1-1.6c-0.9,0-1.5,0.7-1.5,1.8v4.7h-3.1v-8.9h2.1L151,84
					c0.7-0.8,1.6-1.2,2.8-1.2C155.9,82.8,157.2,84.3,157.2,86.5"/>
				<path class="st0" d="M163.7,92.2c-2.8,0-4.9-2-4.9-4.7s2-4.7,4.9-4.7c2.5,0,4.4,1.6,4.7,3.9h-3c-0.3-0.7-0.9-1.2-1.7-1.2
					c-1.1,0-1.8,0.8-1.8,2s0.8,2,1.8,2c0.8,0,1.5-0.5,1.7-1.3h3C168.1,90.6,166.2,92.2,163.7,92.2"/>
				<path class="st0" d="M124.2,92.2c-2.8,0-4.9-2-4.9-4.7s2-4.7,4.9-4.7c2.5,0,4.4,1.6,4.7,3.9h-3c-0.3-0.7-0.9-1.2-1.7-1.2
					c-1.1,0-1.8,0.8-1.8,2s0.8,2,1.8,2c0.8,0,1.5-0.5,1.7-1.3h3C128.6,90.6,126.7,92.2,124.2,92.2"/>
				<path class="st0" d="M178.7,86.6v5.3h-3.1v-5c0-1-0.4-1.6-1.1-1.6c-0.9,0-1.5,0.7-1.5,1.8V92h-3.1V79.9h3.1v3.8
					c0.6-0.5,1.5-0.8,2.4-0.8C177.4,82.8,178.7,84.3,178.7,86.6"/>
				<path class="st0" d="M186.8,89.3v2.7h-2.1c-2,0-3.1-1.2-3.1-3.2v-3.3h-1.6v-0.7l4-4.2h0.6v2.6h2.3v2.4h-2.2v2.8c0,0.7,0.4,1,1,1
					C185.6,89.2,186.8,89.2,186.8,89.3"/>
				<path class="st0" d="M207,86.4v5.6h-3.1v-5.2c0-0.9-0.3-1.4-1-1.4c-0.9,0-1.3,0.6-1.3,1.7v4.9h-3v-5.2c0-0.9-0.3-1.4-1-1.4
					c-0.8,0-1.3,0.6-1.3,1.7v4.9h-3.1v-8.9h2.2l0.4,0.9c0.6-0.8,1.6-1.2,2.6-1.2c1.1,0,2,0.5,2.5,1.3c0.6-0.8,1.6-1.3,2.7-1.3
					C205.7,82.8,207,84.3,207,86.4"/>
				<path class="st0" d="M218,87.4c0,0.3,0,0.5-0.1,0.8h-6.6c0.2,1,0.9,1.6,1.8,1.6c0.7,0,1.3-0.3,1.6-0.8h3.1
					c-0.6,2-2.4,3.3-4.6,3.3c-2.8,0-4.8-2-4.8-4.7s2-4.7,4.8-4.7S218,84.8,218,87.4 M211.4,86.5h3.6c-0.3-0.9-0.9-1.4-1.8-1.4
					S211.6,85.7,211.4,86.5"/>
				<path class="st0" d="M188.5,83.1h3.1v8.9h-3.1V83.1z M188.6,79.4h3V82h-3V79.4z"/>
			</g>
			<g id="Layer_2-2">
				<g id="clearspace">
					<g id="white_blue_logo">
						<path class="st0" d="M204.9,13.6v11.2h4.9v8.1h-4.9v17.4c0,1.3,0.9,2.4,2.4,2.4h1c-0.9,1.2-1.5,2.7-1.5,4.3
							c0,1.4,0.4,2.7,1.1,3.8h-2.4c-0.2,0-0.4,0-0.6,0c-4.5-0.3-8.1-4.1-8.1-8.7V32.9h-4.9v-8.1h4.9V13.6L204.9,13.6L204.9,13.6
							L204.9,13.6z"/>
						<path class="st0" d="M85.7,41c0-8.9,7.1-16.1,15.9-16.1s15.9,7.2,15.9,16.1v19.9c-4.5-0.3-8-3.9-8.2-8.4V40.9
							c0-4.3-3.5-7.8-7.7-7.8s-7.7,3.5-7.7,7.8v5l-0.1,6.3c0,4.6-3.6,8.4-8.1,8.7L85.7,41L85.7,41L85.7,41z"/>
						<path class="st0" d="M189.7,44.8c0,8.9-7.1,16.1-15.9,16.1s-15.9-7.2-15.9-16.2V24.9c4.5,0.3,8,3.9,8.2,8.4v11.6
							c0,4.3,3.5,7.8,7.7,7.8s7.7-3.5,7.7-7.8v-5l0.1-6.3c0-4.6,3.6-8.4,8.1-8.7V44.8C189.7,44.8,189.7,44.8,189.7,44.8z"/>
						<path class="st0" d="M135,52.8c0.8,0,1.7-0.1,2.7-0.1c5.4,0,9.9-4.4,9.9-9.9s-4.4-9.9-9.9-9.9s-9.5,4.1-9.8,9.2v10.6L135,52.8
							L135,52.8L135,52.8z M119.7,43v-0.7c0.4-9.6,8.3-17.3,18-17.3s18,8,18,18s-8.1,18-18,18h-9.9v12.4h-8.1L119.7,43
							C119.7,42.9,119.7,42.9,119.7,43z"/>
						<path class="st0" d="M74.6,34.4c-1.6-1.1-3.5-1.7-5.5-1.7c-5.5,0-9.9,4.4-9.9,9.9c0,2.7,1.1,5.2,2.9,7L74.6,34.4L74.6,34.4
							L74.6,34.4z M50.8,42.9c0-9.9,8-17.9,17.9-17.9c5.2,0,9.8,2.2,13.1,5.7c1.3,1.4,2.1,2.7,2.1,2.7c0.8,1.1,0.6,1.9-0.3,3
							L70,52.8l13.8,0v8.1H68.2c0,0-0.7,0-0.8,0c0,0-0.3,0-0.4,0C57.9,59.9,50.8,52.2,50.8,42.9"/>
						<path class="st0" d="M60.1,60.9H21c-2.5,0-4.6-2.1-4.6-4.6c0-1.1,0.4-2.1,1-2.9c0.2-0.2,0.3-0.5,0.5-0.7l22.3-28H16.4v-8.1
							h31.9l0.2,0l0.2,0c1.1,0.1,2,0.6,2.7,1.3c0.8,0.8,1.4,2,1.4,3.3c0,1.1-0.4,2.2-1.1,3c-0.1,0.2-0.3,0.4-0.4,0.6l-22.4,28h22.4
							C53.4,56.3,56.4,59.1,60.1,60.9"/>
						<path class="st1" d="M209.3,57.1c0-2.5,2.1-4.6,4.6-4.6s4.6,2.1,4.6,4.6s-2.1,4.6-4.6,4.6S209.3,59.6,209.3,57.1"/>
					</g>
				</g>
			</g>
		</g>
		<rect class="st2" width="230.4" height="107.9"/>
	</g>
</g>
</svg>
